<?xml version="1.0" encoding="UTF-8"?><!DOCTYPE svg PUBLIC "-//W3C//DTD SVG 1.1//EN"
    "http://www.w3.org/Graphics/SVG/1.1/DTD/svg11.dtd">
<svg height="80" width="80">
    <defs>
        <radialGradient cx="50%" cy="50%" fx="50%" fy="50%" id="grad1" r="50%">
            <stop style="stop-color:rgb(255,0,0);" offset="0%" />
            <stop style="stop-color:rgb(255,255,0);" offset="50%" />
            <stop style="stop-color:rgb(0,255,0);" offset="75%" />
            <stop style="stop-color:rgb(0,0,255);" offset="100%" />
        </radialGradient>
    </defs>

    <rect style="fill:rgb(0,0,255);" height="80" width="80" />
    <ellipse cx="20" cy="13" fill="url(#grad1)" rx="30" ry="30" />
    <g transform="translate(5 5)">
        <path d="
        M 48 40
        V 20
        a 3 3 0 0 1 6 0
        V 40
        a 6 6 0 1 1 -6 0
        Z" fill="none" stroke="white" stroke-width="2" />
        <path d="
        M 49 40
        V 34
        H 53
        V 40
        a 6 6 0 1 1 -4 0
        Z" fill="white" stroke="white" stroke-width="0" />
        <rect fill="white" height="2" width="3" x="57" y="22" />
        <rect fill="white" height="2" width="3" x="57" y="26" />
        <rect fill="white" height="2" width="3" x="57" y="30" />
        <rect fill="white" height="2" width="3" x="57" y="34" />
    </g>

    <g transform="translate(10 5)">
        <path d="
        M 10 46
        V 40
        a 5 5 0 1 1 4 -8
        a 6 6 0 1 1 12 0
        a 5 5 0 1 1 4 8
        V 46
        Z" fill="white" stroke="white" stroke-width="0" />
        <path d="
        M 10 49
        V 52
        H 30
        V 49
        Z" fill="white" stroke="white" stroke-width="0" />
    </g>

</svg>
